<svg width="500" height="653" viewBox="0 0 500 653" fill="none" xmlns="http://www.w3.org/2000/svg">
<path d="M178.585 476.515L168.901 470.005L206.087 414.681L242.033 359.787L263.672 311.104L211.983 315.216L289.907 248.647L355.961 205.384L386.984 133.842L431.581 69.0897L472.532 16.3508L409.875 26.6709L340.445 53.8075L257.514 107.9L274.433 69.5341L225.521 106.247L210.761 125.691L201.466 118.635L217.212 97.893L303.113 33.4174L284.042 76.6656L335.076 43.3776L406.771 15.357L500 0L440.901 76.1143L397.238 139.526L365.277 213.23L296.613 258.204L246.874 300.735L282.303 297.917L252.312 365.389L215.81 421.132L178.585 476.515Z" fill="black"/>
<path d="M52.6961 528.031L11.239 463.088L25.1715 388.916L45.0395 317.391L86.4762 245.127L102.491 283.156L118.885 226.626L168.053 162.647L177.306 169.757L129.479 231.99L104.521 318.044L84.8717 271.384L55.8904 321.925L36.4814 391.799L23.5593 460.702L58.373 515.237L116.709 505.373L119.981 503.125L126.59 512.741L121.195 516.45L52.6961 528.031Z" fill="black"/>
<path d="M69.8101 519.362L58.6013 516.121L78.6891 446.641L78.975 446.103L112.872 382.495L150.28 321.176L191.245 262.275L235.734 206.26L282.458 151.381L338.434 106.012L345.783 115.077L290.643 159.766L244.683 213.747L200.498 269.386L159.961 327.693L122.921 388.425L89.5605 451.052L69.8101 519.362Z" fill="black"/>
<path d="M56.3803 520.794L14.9701 629.453L33.9949 610.752L47.4372 604.629L63.0869 521.912L56.3803 520.794Z" fill="black"/>
<path d="M0 652.348L52.6287 514.253L69.9275 517.137L52.6073 608.685L37.3485 615.634L0 652.348ZM52.1726 548.218L29.9399 606.557L30.639 605.869L42.2678 600.573L52.1736 548.218H52.1726Z" fill="black"/>
<path d="M119 612.5L359.5 568.5L203 538.5L416.5 473" stroke="black" stroke-width="8"/>
</svg>
